<?xml version="1.0" standalone="no"?>
<!DOCTYPE svg PUBLIC "-//W3C//DTD SVG 20010904//EN"
 "http://www.w3.org/TR/2001/REC-SVG-20010904/DTD/svg10.dtd">
<svg version="1.0" xmlns="http://www.w3.org/2000/svg"
 width="500.000000pt" height="500.000000pt" viewBox="0 0 500.000000 500.000000"
 preserveAspectRatio="xMidYMid meet">
<metadata>
Created by potrace 1.16, written by Peter Selinger 2001-2019
</metadata>
<g transform="translate(0.000000,500.000000) scale(0.100000,-0.100000)"
fill="#000000" stroke="none">
<path d="M1332 4669 c-128 -25 -215 -113 -547 -554 -277 -369 -422 -531 -549
-616 l-58 -39 40 0 c117 0 356 120 545 273 49 40 57 44 57 27 0 -69 -114 -257
-266 -440 -104 -124 -359 -386 -426 -438 -27 -20 -48 -40 -48 -44 0 -10 48 0
145 29 103 32 252 107 378 189 55 36 101 64 102 62 7 -6 -116 -241 -178 -339
-106 -171 -215 -308 -362 -456 -78 -79 -139 -143 -135 -143 38 0 223 91 330
163 109 73 289 220 408 332 56 53 102 95 102 93 0 -3 -18 -49 -40 -104 -50
-123 -141 -282 -226 -398 -36 -48 -63 -90 -60 -93 22 -22 144 50 248 146 93
86 390 433 427 499 18 32 23 3 12 -64 -23 -127 -107 -329 -195 -469 -18 -27
-36 -56 -40 -63 -5 -9 6 -6 30 6 169 87 400 346 569 640 26 45 50 82 52 82 7
0 -9 -123 -24 -185 -16 -65 -79 -207 -112 -254 -26 -35 -26 -41 -3 -41 32 1
97 37 150 85 99 89 185 230 237 389 l32 100 21 -46 c42 -95 56 -246 28 -312
-7 -18 -36 -52 -64 -75 -95 -81 -162 -197 -242 -426 -48 -138 -66 -173 -94
-181 -36 -12 -46 20 -46 145 0 124 -11 189 -32 202 -20 13 -67 10 -122 -6 -65
-20 -96 -41 -96 -66 0 -19 1 -19 22 -5 12 9 32 16 45 16 17 0 22 -7 25 -32 3
-33 12 -40 82 -67 28 -12 28 -12 22 -72 -10 -87 -21 -112 -44 -100 -10 5 -52
53 -93 105 -41 52 -80 97 -87 100 -33 14 -82 -36 -82 -86 0 -11 -16 -38 -35
-59 -35 -39 -43 -71 -26 -98 8 -12 11 -9 16 11 4 14 17 36 30 48 l24 23 36
-32 c34 -30 37 -31 65 -16 60 31 104 12 98 -42 l-3 -28 -111 -6 c-61 -3 -116
-9 -122 -13 -7 -4 -12 -31 -12 -59 0 -30 -7 -60 -15 -71 -8 -11 -15 -33 -15
-49 0 -35 26 -93 46 -101 11 -4 13 2 8 34 -4 21 -4 50 0 64 6 23 8 24 37 14
44 -15 79 2 79 40 0 54 60 80 107 47 32 -22 63 -78 63 -114 0 -21 -11 -43 -35
-70 -38 -42 -43 -65 -20 -98 14 -21 14 -24 -4 -42 -11 -11 -32 -23 -46 -27
-14 -3 -22 -10 -19 -15 10 -17 63 -9 91 15 15 13 45 26 65 30 21 4 50 17 65
30 26 23 27 25 15 75 -43 187 21 300 248 440 147 90 245 166 271 208 13 20 25
31 27 25 7 -22 -30 -128 -82 -232 -53 -106 -79 -149 -286 -490 -115 -190 -225
-401 -218 -420 4 -13 146 105 363 302 l160 145 3 -46 c5 -70 -13 -147 -88
-371 -78 -233 -91 -287 -67 -274 33 19 102 91 194 202 115 140 228 258 265
278 32 17 25 50 68 -306 32 -261 71 -496 88 -526 13 -23 54 84 87 224 30 126
81 416 91 520 4 40 10 71 15 70 5 -2 70 -64 146 -139 142 -140 299 -279 314
-279 22 0 -6 86 -79 246 -71 152 -104 255 -100 312 l3 46 155 -141 c180 -164
337 -300 362 -314 17 -9 16 -6 -2 41 -36 91 -81 172 -263 475 -198 329 -279
481 -301 565 -7 30 -13 56 -12 57 1 1 29 -24 63 -56 34 -32 126 -99 204 -149
182 -115 220 -148 258 -224 26 -51 31 -73 31 -132 0 -39 -5 -88 -11 -110 -9
-34 -8 -41 12 -62 13 -13 41 -29 63 -35 23 -6 48 -17 56 -24 24 -22 71 -36 93
-29 19 6 17 9 -17 26 -45 23 -53 41 -35 76 7 15 15 30 16 34 2 4 -12 23 -31
42 -61 60 -60 110 3 176 56 59 99 51 126 -25 13 -39 14 -40 62 -40 l48 0 0
-58 c0 -31 3 -57 7 -57 4 0 16 12 27 26 25 32 28 101 6 130 -8 11 -15 41 -15
71 0 62 5 59 -142 69 l-108 6 0 28 c0 53 41 73 90 45 35 -20 44 -19 79 11 39
32 56 26 80 -26 14 -31 20 -37 25 -25 13 36 5 66 -29 104 -22 24 -35 49 -35
65 0 31 -40 76 -68 76 -12 0 -42 -29 -80 -78 -78 -101 -119 -139 -133 -125
-15 15 -30 133 -19 153 5 10 25 21 45 24 36 7 55 29 55 65 0 11 4 22 9 25 12
8 63 -12 73 -27 5 -8 8 -4 8 10 0 12 -7 29 -16 37 -22 22 -150 59 -179 52 -40
-10 -49 -41 -52 -181 -5 -166 -7 -175 -38 -175 -34 0 -54 36 -105 184 -68 201
-121 297 -217 395 -48 49 -87 99 -94 119 -18 56 -6 186 26 270 l28 73 36 -108
c41 -123 90 -216 159 -302 48 -59 116 -122 156 -143 29 -16 86 -27 86 -18 0 4
-17 37 -38 71 -70 117 -112 248 -112 352 l0 52 46 -80 c129 -226 282 -418 435
-547 66 -55 156 -114 164 -106 2 2 -11 26 -30 54 -56 83 -141 263 -173 364
-30 95 -46 190 -32 190 4 0 40 -44 82 -98 238 -310 467 -529 581 -556 30 -7
38 12 12 34 -25 21 -150 211 -203 310 -48 89 -102 217 -102 241 0 6 51 -38
113 -97 196 -188 405 -341 580 -424 165 -79 175 -76 71 17 -49 45 -100 94
-114 109 -173 202 -265 326 -364 497 -59 99 -126 237 -126 256 0 6 22 -6 49
-27 119 -90 324 -192 464 -231 115 -33 129 -29 67 20 -131 104 -433 431 -556
604 -85 119 -152 255 -142 286 2 6 29 -10 60 -35 152 -123 350 -233 472 -261
104 -24 120 -17 55 25 -68 43 -230 206 -330 330 -42 52 -147 190 -234 305
-327 434 -423 528 -559 542 -28 3 -69 0 -91 -6 -48 -13 -109 -61 -132 -104
-25 -48 -20 -138 11 -221 127 -335 73 -569 -155 -669 -110 -49 -263 -63 -328
-29 -69 34 -42 55 42 31 22 -6 41 -9 43 -6 2 2 -34 59 -81 126 -88 126 -109
160 -103 166 2 2 20 -3 41 -10 36 -12 37 -12 31 9 -11 37 -159 318 -207 394
-26 40 -47 74 -47 75 0 2 17 1 38 0 l37 -4 -63 60 c-97 92 -269 173 -426 200
-121 22 -222 6 -241 -36 -9 -21 -15 -22 -105 -20 -118 3 -160 -6 -194 -40 -47
-47 -31 -152 33 -206 40 -34 61 -35 61 -3 0 31 49 73 96 82 52 10 109 -11 161
-59 46 -42 77 -90 66 -101 -4 -3 -65 -6 -137 -6 -150 -1 -150 -9 -4 -41 132
-27 138 -31 138 -76 -1 -124 -62 -256 -170 -363 l-75 -75 65 3 c54 3 70 0 90
-17 39 -31 15 -44 -87 -49 -264 -12 -449 134 -461 366 -5 99 7 170 59 324 41
123 45 151 28 211 -27 98 -142 159 -257 136z m111 -80 c29 -15 66 -50 79 -73
7 -12 -6 -5 -32 17 -59 50 -97 56 -163 23 -71 -34 -117 -76 -234 -208 -184
-209 -191 -213 -56 -30 101 136 186 222 255 256 55 28 115 33 151 15z m2233
-54 c136 -40 308 -204 419 -400 35 -62 33 -59 -46 40 -168 214 -330 339 -454
352 -48 5 -56 3 -79 -20 -27 -27 -36 -23 -13 5 32 40 90 48 173 23z m-1522
-870 c-8 -19 -23 -87 -34 -151 -32 -189 -25 -483 19 -734 47 -274 164 -599
289 -803 58 -96 31 -72 -36 32 -269 417 -394 1102 -281 1545 21 82 44 146 53
146 3 0 -2 -16 -10 -35z"/>
</g>
</svg>
